<svg xmlns="http://www.w3.org/2000/svg" xmlns:xlink="http://www.w3.org/1999/xlink" width="158" zoomAndPan="magnify" viewBox="0 0 118.5 30.000001" height="40" preserveAspectRatio="xMidYMid meet" version="1.0"><defs><g/><clipPath id="d52b975c69"><path d="M 1.667969 0 L 116.347656 0 L 116.347656 29.03125 L 1.667969 29.03125 Z M 1.667969 0 " clip-rule="nonzero"/></clipPath><clipPath id="b92ecbf67e"><path d="M 101 6 L 116.347656 6 L 116.347656 25 L 101 25 Z M 101 6 " clip-rule="nonzero"/></clipPath><clipPath id="1fadd51bf1"><path d="M 1.667969 0 L 116.347656 0 L 116.347656 29 L 1.667969 29 Z M 1.667969 0 " clip-rule="nonzero"/></clipPath></defs><g clip-path="url(#d52b975c69)"><path fill="#ffffff" d="M 1.667969 0 L 116.832031 0 L 116.832031 36.445312 L 1.667969 36.445312 Z M 1.667969 0 " fill-opacity="1" fill-rule="nonzero"/><path fill="#ffffff" d="M 1.667969 0 L 116.832031 0 L 116.832031 29.15625 L 1.667969 29.15625 Z M 1.667969 0 " fill-opacity="1" fill-rule="nonzero"/><path fill="#ffffff" d="M 1.667969 0 L 116.832031 0 L 116.832031 29.15625 L 1.667969 29.15625 Z M 1.667969 0 " fill-opacity="1" fill-rule="nonzero"/></g><g fill="#4c92e7" fill-opacity="1"><g transform="translate(2.40271, 24.210599)"><g><path d="M 10.53125 0 L 6.59375 0 C 6.289062 0 6.070312 -0.0664062 5.9375 -0.203125 C 5.800781 -0.335938 5.734375 -0.5625 5.734375 -0.875 L 5.734375 -3.984375 L 2.015625 -8.953125 C 1.640625 -9.453125 1.390625 -9.890625 1.265625 -10.265625 C 1.148438 -10.640625 1.09375 -11.195312 1.09375 -11.9375 L 1.09375 -16.59375 C 1.09375 -16.90625 1.160156 -17.128906 1.296875 -17.265625 C 1.429688 -17.398438 1.65625 -17.46875 1.96875 -17.46875 L 5.703125 -17.46875 C 6.003906 -17.46875 6.222656 -17.398438 6.359375 -17.265625 C 6.503906 -17.128906 6.578125 -16.90625 6.578125 -16.59375 L 6.578125 -12.625 C 6.578125 -12.457031 6.582031 -12.285156 6.59375 -12.109375 C 6.613281 -11.929688 6.679688 -11.757812 6.796875 -11.59375 L 7.90625 -9.859375 C 7.988281 -9.710938 8.070312 -9.601562 8.15625 -9.53125 C 8.25 -9.46875 8.363281 -9.4375 8.5 -9.4375 L 8.734375 -9.4375 C 8.867188 -9.4375 8.976562 -9.46875 9.0625 -9.53125 C 9.15625 -9.601562 9.238281 -9.710938 9.3125 -9.859375 L 10.4375 -11.59375 C 10.550781 -11.757812 10.613281 -11.929688 10.625 -12.109375 C 10.644531 -12.285156 10.65625 -12.457031 10.65625 -12.625 L 10.65625 -16.59375 C 10.65625 -16.90625 10.722656 -17.128906 10.859375 -17.265625 C 10.992188 -17.398438 11.21875 -17.46875 11.53125 -17.46875 L 15.140625 -17.46875 C 15.453125 -17.46875 15.675781 -17.398438 15.8125 -17.265625 C 15.945312 -17.128906 16.015625 -16.90625 16.015625 -16.59375 L 16.015625 -11.9375 C 16.015625 -11.195312 15.945312 -10.640625 15.8125 -10.265625 C 15.6875 -9.890625 15.445312 -9.453125 15.09375 -8.953125 L 11.40625 -3.953125 L 11.40625 -0.875 C 11.40625 -0.5625 11.335938 -0.335938 11.203125 -0.203125 C 11.066406 -0.0664062 10.84375 0 10.53125 0 Z M 10.53125 0 "/></g></g></g><g fill="#4c92e7" fill-opacity="1"><g transform="translate(19.512367, 24.210599)"><g><path d="M 16.46875 -4.59375 C 16.46875 -3.84375 16.359375 -3.164062 16.140625 -2.5625 C 15.929688 -1.957031 15.546875 -1.4375 14.984375 -1 C 14.421875 -0.570312 13.648438 -0.238281 12.671875 0 C 11.691406 0.238281 10.453125 0.359375 8.953125 0.359375 C 7.453125 0.359375 6.207031 0.238281 5.21875 0 C 4.226562 -0.238281 3.453125 -0.570312 2.890625 -1 C 2.335938 -1.4375 1.953125 -1.957031 1.734375 -2.5625 C 1.515625 -3.164062 1.40625 -3.84375 1.40625 -4.59375 L 1.40625 -12.859375 C 1.40625 -13.609375 1.515625 -14.285156 1.734375 -14.890625 C 1.953125 -15.492188 2.335938 -16.015625 2.890625 -16.453125 C 3.453125 -16.890625 4.226562 -17.226562 5.21875 -17.46875 C 6.207031 -17.707031 7.453125 -17.828125 8.953125 -17.828125 C 10.453125 -17.828125 11.691406 -17.707031 12.671875 -17.46875 C 13.648438 -17.226562 14.421875 -16.890625 14.984375 -16.453125 C 15.546875 -16.015625 15.929688 -15.492188 16.140625 -14.890625 C 16.359375 -14.285156 16.46875 -13.609375 16.46875 -12.859375 Z M 6.921875 -5.453125 C 6.921875 -5.128906 7.039062 -4.859375 7.28125 -4.640625 C 7.519531 -4.421875 8.078125 -4.3125 8.953125 -4.3125 C 9.828125 -4.3125 10.382812 -4.421875 10.625 -4.640625 C 10.875 -4.859375 11 -5.128906 11 -5.453125 L 11 -11.984375 C 11 -12.296875 10.875 -12.5625 10.625 -12.78125 C 10.382812 -13 9.828125 -13.109375 8.953125 -13.109375 C 8.078125 -13.109375 7.519531 -13 7.28125 -12.78125 C 7.039062 -12.5625 6.921875 -12.296875 6.921875 -11.984375 Z M 6.921875 -5.453125 "/></g></g></g><g fill="#4c92e7" fill-opacity="1"><g transform="translate(37.398637, 24.210599)"><g><path d="M 16.546875 -4.59375 C 16.546875 -3.84375 16.4375 -3.164062 16.21875 -2.5625 C 16 -1.957031 15.609375 -1.4375 15.046875 -1 C 14.492188 -0.570312 13.734375 -0.238281 12.765625 0 C 11.796875 0.238281 10.554688 0.359375 9.046875 0.359375 C 7.546875 0.359375 6.304688 0.238281 5.328125 0 C 4.359375 -0.238281 3.59375 -0.570312 3.03125 -1 C 2.476562 -1.4375 2.09375 -1.957031 1.875 -2.5625 C 1.65625 -3.164062 1.546875 -3.84375 1.546875 -4.59375 L 1.546875 -16.59375 C 1.546875 -16.90625 1.613281 -17.128906 1.75 -17.265625 C 1.894531 -17.398438 2.117188 -17.46875 2.421875 -17.46875 L 6.234375 -17.46875 C 6.546875 -17.46875 6.769531 -17.398438 6.90625 -17.265625 C 7.039062 -17.128906 7.109375 -16.90625 7.109375 -16.59375 L 7.109375 -5.53125 C 7.109375 -5.207031 7.226562 -4.9375 7.46875 -4.71875 C 7.71875 -4.5 8.257812 -4.390625 9.09375 -4.390625 C 9.957031 -4.390625 10.507812 -4.5 10.75 -4.71875 C 10.988281 -4.9375 11.109375 -5.207031 11.109375 -5.53125 L 11.109375 -16.59375 C 11.109375 -16.90625 11.175781 -17.128906 11.3125 -17.265625 C 11.457031 -17.398438 11.679688 -17.46875 11.984375 -17.46875 L 15.671875 -17.46875 C 15.984375 -17.46875 16.207031 -17.398438 16.34375 -17.265625 C 16.476562 -17.128906 16.546875 -16.90625 16.546875 -16.59375 Z M 16.546875 -4.59375 "/></g></g></g><g fill="#4c92e7" fill-opacity="1"><g transform="translate(55.503326, 24.210599)"><g><path d="M 1.84375 -6.234375 C 1.539062 -6.234375 1.316406 -6.300781 1.171875 -6.4375 C 1.035156 -6.582031 0.96875 -6.804688 0.96875 -7.109375 L 0.96875 -10.359375 C 0.96875 -10.671875 1.035156 -10.894531 1.171875 -11.03125 C 1.316406 -11.164062 1.539062 -11.234375 1.84375 -11.234375 L 8.34375 -11.234375 C 8.65625 -11.234375 8.878906 -11.164062 9.015625 -11.03125 C 9.148438 -10.894531 9.21875 -10.671875 9.21875 -10.359375 L 9.21875 -7.109375 C 9.21875 -6.804688 9.148438 -6.582031 9.015625 -6.4375 C 8.878906 -6.300781 8.65625 -6.234375 8.34375 -6.234375 Z M 1.84375 -6.234375 "/></g></g></g><g fill="#4c92e7" fill-opacity="1"><g transform="translate(65.696313, 24.210599)"><g><path d="M 6.3125 0 L 2.546875 0 C 2.242188 0 2.019531 -0.0664062 1.875 -0.203125 C 1.738281 -0.335938 1.671875 -0.5625 1.671875 -0.875 L 1.671875 -16.59375 C 1.671875 -16.90625 1.738281 -17.128906 1.875 -17.265625 C 2.019531 -17.398438 2.242188 -17.46875 2.546875 -17.46875 L 9.96875 -17.46875 C 12.164062 -17.46875 13.671875 -17.03125 14.484375 -16.15625 C 15.296875 -15.28125 15.703125 -14.140625 15.703125 -12.734375 L 15.703125 -9.640625 C 15.703125 -8.222656 15.296875 -7.078125 14.484375 -6.203125 C 13.671875 -5.335938 12.164062 -4.90625 9.96875 -4.90625 L 7.1875 -4.90625 L 7.1875 -0.875 C 7.1875 -0.5625 7.113281 -0.335938 6.96875 -0.203125 C 6.832031 -0.0664062 6.613281 0 6.3125 0 Z M 7.140625 -12.9375 L 7.140625 -9.265625 L 9.3125 -9.265625 C 9.78125 -9.265625 10.085938 -9.382812 10.234375 -9.625 C 10.378906 -9.875 10.453125 -10.148438 10.453125 -10.453125 L 10.453125 -11.75 C 10.453125 -12.050781 10.378906 -12.320312 10.234375 -12.5625 C 10.085938 -12.8125 9.78125 -12.9375 9.3125 -12.9375 Z M 7.140625 -12.9375 "/></g></g></g><g fill="#4c92e7" fill-opacity="1"><g transform="translate(82.247785, 24.210599)"><g><path d="M 16.46875 -4.59375 C 16.46875 -3.84375 16.359375 -3.164062 16.140625 -2.5625 C 15.929688 -1.957031 15.546875 -1.4375 14.984375 -1 C 14.421875 -0.570312 13.648438 -0.238281 12.671875 0 C 11.691406 0.238281 10.453125 0.359375 8.953125 0.359375 C 7.453125 0.359375 6.207031 0.238281 5.21875 0 C 4.226562 -0.238281 3.453125 -0.570312 2.890625 -1 C 2.335938 -1.4375 1.953125 -1.957031 1.734375 -2.5625 C 1.515625 -3.164062 1.40625 -3.84375 1.40625 -4.59375 L 1.40625 -12.859375 C 1.40625 -13.609375 1.515625 -14.285156 1.734375 -14.890625 C 1.953125 -15.492188 2.335938 -16.015625 2.890625 -16.453125 C 3.453125 -16.890625 4.226562 -17.226562 5.21875 -17.46875 C 6.207031 -17.707031 7.453125 -17.828125 8.953125 -17.828125 C 10.453125 -17.828125 11.691406 -17.707031 12.671875 -17.46875 C 13.648438 -17.226562 14.421875 -16.890625 14.984375 -16.453125 C 15.546875 -16.015625 15.929688 -15.492188 16.140625 -14.890625 C 16.359375 -14.285156 16.46875 -13.609375 16.46875 -12.859375 Z M 6.921875 -5.453125 C 6.921875 -5.128906 7.039062 -4.859375 7.28125 -4.640625 C 7.519531 -4.421875 8.078125 -4.3125 8.953125 -4.3125 C 9.828125 -4.3125 10.382812 -4.421875 10.625 -4.640625 C 10.875 -4.859375 11 -5.128906 11 -5.453125 L 11 -11.984375 C 11 -12.296875 10.875 -12.5625 10.625 -12.78125 C 10.382812 -13 9.828125 -13.109375 8.953125 -13.109375 C 8.078125 -13.109375 7.519531 -13 7.28125 -12.78125 C 7.039062 -12.5625 6.921875 -12.296875 6.921875 -11.984375 Z M 6.921875 -5.453125 "/></g></g></g><g clip-path="url(#b92ecbf67e)"><g fill="#4c92e7" fill-opacity="1"><g transform="translate(100.134055, 24.210599)"><g><path d="M 10.71875 0 L 2.546875 0 C 2.242188 0 2.019531 -0.0664062 1.875 -0.203125 C 1.738281 -0.335938 1.671875 -0.5625 1.671875 -0.875 L 1.671875 -16.59375 C 1.671875 -16.90625 1.738281 -17.128906 1.875 -17.265625 C 2.019531 -17.398438 2.242188 -17.46875 2.546875 -17.46875 L 10.71875 -17.46875 C 12.75 -17.46875 14.25 -17.0625 15.21875 -16.25 C 16.195312 -15.445312 16.6875 -14.203125 16.6875 -12.515625 L 16.6875 -4.953125 C 16.6875 -3.265625 16.195312 -2.015625 15.21875 -1.203125 C 14.25 -0.398438 12.75 0 10.71875 0 Z M 7.1875 -12.84375 L 7.1875 -4.59375 L 10.0625 -4.59375 C 10.457031 -4.59375 10.742188 -4.6875 10.921875 -4.875 C 11.109375 -5.070312 11.203125 -5.375 11.203125 -5.78125 L 11.203125 -11.671875 C 11.203125 -12.078125 11.109375 -12.375 10.921875 -12.5625 C 10.742188 -12.75 10.457031 -12.84375 10.0625 -12.84375 Z M 7.1875 -12.84375 "/></g></g></g></g><g clip-path="url(#1fadd51bf1)"><path strokeLinecap="butt" transform="matrix(0.728869, 0, 0, 0.728869, -17.358894, 5.644794)" fill="none" strokeLinejoin="miter" d="M 40.097859 23.998726 L 34.695653 23.998726 C 34.272266 23.998726 33.966784 23.907617 33.779207 23.714681 C 33.59699 23.527104 33.500522 23.221622 33.500522 22.803595 L 33.500522 18.537567 L 28.403798 11.715138 C 27.894661 11.029143 27.557024 10.428898 27.390884 9.919762 C 27.219386 9.405266 27.138996 8.638881 27.138996 7.620608 L 27.138996 1.221566 C 27.138996 0.803539 27.230104 0.498057 27.42304 0.31048 C 27.610617 0.117544 27.916099 0.0264355 28.339486 0.0264355 L 33.468366 0.0264355 C 33.886394 0.0264355 34.191876 0.117544 34.379453 0.31048 C 34.572389 0.498057 34.663497 0.803539 34.663497 1.221566 L 34.663497 6.682725 C 34.663497 6.907817 34.674216 7.138268 34.695653 7.384798 C 34.71709 7.625968 34.808199 7.861778 34.96362 8.081511 L 36.496389 10.482491 C 36.608934 10.680787 36.72684 10.825489 36.844745 10.916597 C 36.96801 11.007706 37.118071 11.050581 37.300288 11.050581 L 37.632567 11.050581 C 37.804065 11.050581 37.954127 11.007706 38.072032 10.916597 C 38.195297 10.825489 38.313202 10.680787 38.431107 10.482491 L 39.958517 8.081511 C 40.113937 7.861778 40.205046 7.625968 40.226483 7.384798 C 40.247921 7.138268 40.258639 6.907817 40.258639 6.682725 L 40.258639 1.221566 C 40.258639 0.803539 40.355107 0.498057 40.542684 0.31048 C 40.73026 0.117544 41.041102 0.0264355 41.45913 0.0264355 L 46.421871 0.0264355 C 46.845258 0.0264355 47.14538 0.117544 47.332957 0.31048 C 47.520534 0.498057 47.617001 0.803539 47.617001 1.221566 L 47.617001 7.620608 C 47.617001 8.638881 47.525893 9.405266 47.349035 9.919762 C 47.172177 10.428898 46.845258 11.029143 46.357559 11.715138 L 41.29299 18.569723 L 41.29299 22.803595 C 41.29299 23.221622 41.196522 23.527104 41.003586 23.714681 C 40.81601 23.907617 40.510528 23.998726 40.097859 23.998726 Z M 71.723275 17.70687 C 71.723275 18.725143 71.573213 19.652308 71.27845 20.488363 C 70.978328 21.31906 70.442395 22.026492 69.67601 22.616018 C 68.909626 23.210904 67.859197 23.671806 66.514004 23.998726 C 65.168812 24.331004 63.464545 24.497143 61.401202 24.497143 C 59.3325 24.497143 57.622873 24.331004 56.266963 23.998726 C 54.92177 23.671806 53.860623 23.210904 53.088879 22.616018 C 52.327854 22.026492 51.79728 21.31906 51.497158 20.488363 C 51.197035 19.652308 51.052333 18.725143 51.052333 17.70687 L 51.052333 6.350447 C 51.052333 5.332174 51.197035 4.405009 51.497158 3.579672 C 51.79728 2.743617 52.327854 2.025466 53.088879 1.425221 C 53.860623 0.819617 54.92177 0.353355 56.266963 0.0264355 C 57.622873 -0.311202 59.3325 -0.477342 61.401202 -0.477342 C 63.464545 -0.477342 65.168812 -0.311202 66.514004 0.0264355 C 67.859197 0.353355 68.909626 0.819617 69.67601 1.425221 C 70.442395 2.025466 70.978328 2.743617 71.27845 3.579672 C 71.573213 4.405009 71.723275 5.332174 71.723275 6.350447 Z M 58.603631 16.50638 C 58.603631 16.951205 58.76977 17.320998 59.09669 17.62648 C 59.434328 17.926603 60.200712 18.071305 61.401202 18.071305 C 62.601692 18.071305 63.368077 17.926603 63.700355 17.62648 C 64.032634 17.320998 64.193414 16.951205 64.193414 16.50638 L 64.193414 7.550937 C 64.193414 7.132909 64.032634 6.768475 63.700355 6.473711 C 63.368077 6.168229 62.601692 6.018168 61.401202 6.018168 C 60.200712 6.018168 59.434328 6.168229 59.09669 6.473711 C 58.76977 6.768475 58.603631 7.132909 58.603631 7.550937 Z M 96.360122 17.70687 C 96.360122 18.725143 96.210061 19.652308 95.915297 20.488363 C 95.615175 21.31906 95.084601 22.026492 94.312857 22.616018 C 93.546473 23.210904 92.501403 23.671806 91.16693 23.998726 C 89.837815 24.331004 88.144267 24.497143 86.075565 24.497143 C 84.012222 24.497143 82.313314 24.331004 80.97884 23.998726 C 79.644367 23.671806 78.599297 23.210904 77.832913 22.616018 C 77.066528 22.026492 76.535954 21.31906 76.230473 20.488363 C 75.935709 19.652308 75.785648 18.725143 75.785648 17.70687 L 75.785648 1.221566 C 75.785648 0.803539 75.882116 0.498057 76.069693 0.31048 C 76.257269 0.117544 76.562751 0.0264355 76.986138 0.0264355 L 82.216846 0.0264355 C 82.634874 0.0264355 82.934996 0.117544 83.127932 0.31048 C 83.315509 0.498057 83.411977 0.803539 83.411977 1.221566 L 83.411977 16.404553 C 83.411977 16.849377 83.578116 17.22453 83.905035 17.530012 C 84.242673 17.824776 84.98762 17.974837 86.139877 17.974837 C 87.31893 17.974837 88.069236 17.824776 88.401514 17.530012 C 88.739152 17.22453 88.905292 16.849377 88.905292 16.404553 L 88.905292 1.221566 C 88.905292 0.803539 89.00176 0.498057 89.189336 0.31048 C 89.382272 0.117544 89.682395 0.0264355 90.100423 0.0264355 L 95.164991 0.0264355 C 95.588378 0.0264355 95.89386 0.117544 96.076077 0.31048 C 96.269013 0.498057 96.360122 0.803539 96.360122 1.221566 Z M 101.02274 15.439873 C 100.599353 15.439873 100.293871 15.348764 100.106295 15.161188 C 99.918718 14.973611 99.827609 14.668129 99.827609 14.244742 L 99.827609 9.780419 C 99.827609 9.357032 99.918718 9.056909 100.106295 8.869333 C 100.293871 8.681756 100.599353 8.585288 101.02274 8.585288 L 109.951387 8.585288 C 110.369414 8.585288 110.674896 8.681756 110.857114 8.869333 C 111.05005 9.056909 111.146518 9.357032 111.146518 9.780419 L 111.146518 14.244742 C 111.146518 14.668129 111.05005 14.973611 110.857114 15.161188 C 110.674896 15.348764 110.369414 15.439873 109.951387 15.439873 Z M 121.136312 23.998726 L 115.975275 23.998726 C 115.551888 23.998726 115.246406 23.907617 115.05347 23.714681 C 114.871253 23.527104 114.780144 23.221622 114.780144 22.803595 L 114.780144 1.221566 C 114.780144 0.803539 114.871253 0.498057 115.05347 0.31048 C 115.246406 0.117544 115.551888 0.0264355 115.975275 0.0264355 L 126.163365 0.0264355 C 129.186028 0.0264355 131.24937 0.621321 132.358752 1.821812 C 133.468133 3.016943 134.025504 4.587227 134.025504 6.521945 L 134.025504 10.782614 C 134.025504 12.711973 133.468133 14.276898 132.358752 15.477388 C 131.24937 16.677879 129.186028 17.278124 126.163365 17.278124 L 122.331442 17.278124 L 122.331442 22.803595 C 122.331442 23.221622 122.234975 23.527104 122.047398 23.714681 C 121.865181 23.907617 121.559699 23.998726 121.136312 23.998726 Z M 122.26713 6.253979 L 122.26713 11.275672 L 125.268356 11.275672 C 125.911476 11.275672 126.329504 11.109533 126.527799 10.782614 C 126.726094 10.444976 126.827922 10.069823 126.827922 9.651795 L 126.827922 7.888575 C 126.827922 7.465188 126.726094 7.084675 126.527799 6.757756 C 126.329504 6.420118 125.911476 6.253979 125.268356 6.253979 Z M 157.794139 17.70687 C 157.794139 18.725143 157.649437 19.652308 157.349315 20.488363 C 157.049192 21.31906 156.518618 22.026492 155.746875 22.616018 C 154.98585 23.210904 153.930061 23.671806 152.584869 23.998726 C 151.239677 24.331004 149.535409 24.497143 147.472067 24.497143 C 145.408724 24.497143 143.699097 24.331004 142.343186 23.998726 C 140.992635 23.671806 139.931487 23.210904 139.165103 22.616018 C 138.398718 22.026492 137.868145 21.31906 137.568022 20.488363 C 137.273259 19.652308 137.123198 18.725143 137.123198 17.70687 L 137.123198 6.350447 C 137.123198 5.332174 137.273259 4.405009 137.568022 3.579672 C 137.868145 2.743617 138.398718 2.025466 139.165103 1.425221 C 139.931487 0.819617 140.992635 0.353355 142.343186 0.0264355 C 143.699097 -0.311202 145.408724 -0.477342 147.472067 -0.477342 C 149.535409 -0.477342 151.239677 -0.311202 152.584869 0.0264355 C 153.930061 0.353355 154.98585 0.819617 155.746875 1.425221 C 156.518618 2.025466 157.049192 2.743617 157.349315 3.579672 C 157.649437 4.405009 157.794139 5.332174 157.794139 6.350447 Z M 144.674496 16.50638 C 144.674496 16.951205 144.840635 17.320998 145.172913 17.62648 C 145.505192 17.926603 146.271576 18.071305 147.472067 18.071305 C 148.672557 18.071305 149.438941 17.926603 149.77122 17.62648 C 150.103499 17.320998 150.269638 16.951205 150.269638 16.50638 L 150.269638 7.550937 C 150.269638 7.132909 150.103499 6.768475 149.77122 6.473711 C 149.438941 6.168229 148.672557 6.018168 147.472067 6.018168 C 146.271576 6.018168 145.505192 6.168229 145.172913 6.473711 C 144.840635 6.768475 144.674496 7.132909 144.674496 7.550937 Z M 174.440223 23.998726 L 163.223142 23.998726 C 162.799755 23.998726 162.494273 23.907617 162.306696 23.714681 C 162.11912 23.527104 162.028011 23.221622 162.028011 22.803595 L 162.028011 1.221566 C 162.028011 0.803539 162.11912 0.498057 162.306696 0.31048 C 162.494273 0.117544 162.799755 0.0264355 163.223142 0.0264355 L 174.440223 0.0264355 C 177.216357 0.0264355 179.27434 0.578447 180.619532 1.693188 C 181.964725 2.79721 182.634641 4.506837 182.634641 6.811349 L 182.634641 17.203093 C 182.634641 19.512965 181.964725 21.222592 180.619532 22.331973 C 179.27434 23.446714 177.216357 23.998726 174.440223 23.998726 Z M 169.579309 6.382603 L 169.579309 17.70687 L 173.545215 17.70687 C 174.081148 17.70687 174.472379 17.572887 174.724268 17.31028 C 174.981516 17.042313 175.110139 16.629645 175.110139 16.072274 L 175.110139 7.985043 C 175.110139 7.427672 174.981516 7.020363 174.724268 6.763115 C 174.472379 6.511227 174.081148 6.382603 173.545215 6.382603 Z M 169.579309 6.382603 " stroke="#22528d" strokeWidth="1.249099" stroke-opacity="1" stroke-miterlimit="4"/></g></svg>